<mxfile host="app.diagrams.net" modified="2020-06-23T16:47:48.664Z" agent="5.0 (Windows)" etag="Yo2e7g4mdqlxmZADM_LD" version="13.3.0" type="github">
  <diagram id="X1EhsIdS1peNs1JmAevb" name="Page-1">
    <mxGraphModel dx="700" dy="800" grid="1" gridSize="10" guides="1" tooltips="1" connect="1" arrows="1" fold="1" page="1" pageScale="1" pageWidth="850" pageHeight="1100" math="0" shadow="0">
      <root>
        <mxCell id="0" />
        <mxCell id="1" parent="0" />
      </root>
    </mxGraphModel>
  </diagram>
</mxfile>
